<svg width="35" height="50" viewBox="0 0 35 50" fill="none" xmlns="http://www.w3.org/2000/svg">
<path d="M19.7913 31.249C21.5048 31.249 22.9162 29.8376 22.9162 28.1241L22.9162 15.819L23.5996 16.5357L23.86 16.7638C24.4394 17.3406 25.2236 17.6645 26.0412 17.6645C26.8587 17.6645 27.643 17.3406 28.2224 16.7638C28.7992 16.1844 29.123 15.4002 29.123 14.5826C29.123 13.7651 28.7992 12.9808 28.2224 12.4014L28.2224 12.3691L19.6934 3.93797L19.6288 3.90568L19.5965 3.84006C18.0976 2.7038 16.2692 2.08691 14.3882 2.08279L12.5966 2.08279C11.476 2.08046 10.3659 2.29948 9.33008 2.72729C8.2943 3.1551 7.3532 3.78327 6.56083 4.57575C5.76845 5.36822 5.14039 6.30939 4.71271 7.34523C4.28503 8.38107 4.06614 9.49118 4.06861 10.6118L4.06861 18.7492C4.06861 20.4627 5.48109 21.8742 7.19356 21.8742C7.63731 21.8742 8.04772 21.7523 8.43104 21.5815C8.77271 22.9356 10.005 23.9575 11.4581 23.9575C12.256 23.9575 12.9883 23.645 13.5414 23.1439C14.1108 23.6642 14.8534 23.9542 15.6247 23.9575C15.9806 23.953 16.3331 23.8868 16.6663 23.7616L16.6663 28.1241C16.6663 29.8376 18.0778 31.249 19.7913 31.249ZM19.7913 29.1657C19.2132 29.1657 18.7496 28.7022 18.7496 28.1241L18.7496 16.6659L16.6663 16.6659L16.6663 20.8325C16.6663 21.4106 16.2028 21.8742 15.6247 21.8742C15.0466 21.8742 14.583 21.4106 14.583 20.8325L14.583 16.6659L12.4997 16.6659L12.4997 20.8325C12.4997 21.4106 12.0362 21.8742 11.4581 21.8742C10.88 21.8742 10.4164 21.4106 10.4164 20.8325L10.4164 16.6659L8.23522 16.6659L8.23522 18.7492C8.23522 19.3273 7.77168 19.7909 7.19356 19.7909C6.61649 19.7909 6.15191 19.3273 6.15191 18.7492L6.15191 10.6108C6.15191 7.00251 8.98833 4.1661 12.5976 4.1661L14.3872 4.1661C15.9132 4.1661 17.232 4.71088 18.3267 5.53378L26.7579 13.867C27.2214 14.3305 27.2214 14.8357 26.7579 15.2993C26.2933 15.7628 25.7891 15.7628 25.3256 15.2993L20.8329 10.8066L20.8329 28.1241C20.8329 28.7022 20.3694 29.1657 19.7913 29.1657Z" fill="white"/>
<path d="M12.953 28.7871C9.04778 32.6923 9.04778 39.0239 12.953 42.929C16.8581 46.8342 23.1897 46.8342 27.0949 42.929C31.0001 39.0239 31.0001 32.6923 27.0949 28.7871" stroke="white" stroke-width="2.15"/>
<path d="M16.3938 32.2287C14.3889 34.2335 14.3889 37.4841 16.3938 39.489C18.3986 41.4939 21.6492 41.4939 23.6541 39.489C25.659 37.4841 25.659 34.2335 23.6541 32.2287" stroke="white" stroke-width="2.15"/>
</svg>
