<svg width="42" height="42" viewBox="0 0 42 42" fill="none" xmlns="http://www.w3.org/2000/svg">
<path d="M21.1743 0C9.77551 0 0.449219 9.32629 0.449219 20.7251C0.449219 32.1239 9.77551 41.4502 21.1743 41.4502C32.5731 41.4502 41.8994 32.1239 41.8994 20.7251C41.8994 9.32629 32.5731 0 21.1743 0ZM31.1224 15.6474C31.1224 15.8547 31.1224 16.062 31.1224 16.2692C31.1224 23.0049 25.9411 30.8804 16.5112 30.8804C13.6097 30.8804 10.9154 30.0514 8.63563 28.6006C9.05013 28.6006 9.46464 28.7043 9.87914 28.7043C12.2625 28.7043 14.4387 27.8753 16.2003 26.5281C13.9205 26.5281 12.0553 24.9737 11.4335 23.0049C11.7444 23.1085 12.0553 23.1085 12.3661 23.1085C12.8843 23.1085 13.2988 23.0049 13.7133 22.9012C11.3299 22.3831 9.56826 20.3106 9.56826 17.9272C9.56826 17.9272 9.56826 17.9272 9.56826 17.8236C10.2936 18.2381 11.019 18.4453 11.848 18.4453C10.6045 17.4091 9.77551 15.8547 9.77551 14.0931C9.77551 13.1604 9.98276 12.2278 10.5009 11.5024C12.9879 14.6112 16.822 16.6837 21.0707 16.891C20.9671 16.4765 20.9671 16.1656 20.9671 15.7511C20.9671 12.9532 23.2468 10.6734 26.0447 10.6734C27.4955 10.6734 28.8426 11.2952 29.7752 12.3314C30.9151 12.1242 32.055 11.7097 32.9876 11.0879C32.5731 12.3314 31.7441 13.2641 30.7079 13.8858C31.7441 13.7822 32.7804 13.4713 33.6094 13.0568C32.9876 13.9894 32.055 14.9221 31.1224 15.6474Z" fill="black"/>
</svg>
