<svg width="147" height="45" viewBox="0 0 147 45" fill="none" xmlns="http://www.w3.org/2000/svg">
<path d="M112.239 10.0145C114.964 10.0145 117.174 7.77265 117.174 5.00723C117.174 2.24181 114.964 0 112.239 0C109.513 0 107.304 2.24181 107.304 5.00723C107.304 7.77265 109.513 10.0145 112.239 10.0145Z" fill="black"/>
<path d="M105.276 44.4825V38.8154L107.113 38.3884C107.533 38.3884 107.61 38.3884 107.61 37.7285V19.6016C107.61 19.2134 107.61 19.097 107.113 18.9417L105.276 18.4759V12.8477H119.086V18.5147L117.25 18.9805C116.829 18.9805 116.753 19.2523 116.753 19.6404V37.7285C116.753 38.1555 116.753 38.272 117.212 38.3884L119.086 38.893V44.4825H105.276Z" fill="black"/>
<path d="M79.8755 44.4823L72.2246 19.5237C72.2015 19.4129 72.1448 19.3122 72.0625 19.2356C71.9802 19.159 71.8763 19.1105 71.7655 19.0968L69.3555 18.6698V12.925H85.0398V18.6698L83.2036 19.252C83.0244 19.2713 82.8586 19.3574 82.7384 19.4937C82.6183 19.6299 82.5523 19.8066 82.5533 19.9895C82.5883 20.5025 82.6781 21.01 82.8211 21.5033L86.1875 34.8948H86.417L89.7451 21.5033C89.8814 21.0085 89.9711 20.5016 90.0129 19.9895C90.0132 19.8005 89.9419 19.6185 89.8137 19.4813C89.6856 19.3441 89.5104 19.262 89.3243 19.252L87.5646 18.6698V12.925H102.866V18.631L100.342 19.1356C100.23 19.1617 100.127 19.2193 100.046 19.3016C99.9651 19.384 99.9084 19.4879 99.8826 19.6014L92.2317 44.4823H79.8755Z" fill="black"/>
<path d="M122.338 42.2319C122.354 39.3502 122.546 36.4724 122.912 33.6148H130.563L131.328 37.2246C132.287 37.5649 133.296 37.7355 134.312 37.7292C136.033 37.7292 137.181 36.9529 137.181 35.7108C137.181 34.4687 135.23 33.4983 132.858 32.7996C128.191 31.3635 122.606 29.5003 122.606 22.1641C122.606 14.828 127.196 12.4214 134.388 12.4214C138.153 12.4286 141.857 13.375 145.176 15.1773C145.225 17.892 145.046 20.606 144.641 23.2898H136.99L136.607 20.1069C135.884 19.7854 135.101 19.6265 134.312 19.6411C132.629 19.6411 131.519 20.0293 131.519 21.3878C131.519 22.7464 133.623 23.9109 135.919 24.6872C140.433 26.201 146.132 28.2582 146.132 35.0121C146.132 41.7661 142.039 44.9878 134.159 44.9878C130.067 44.964 126.03 44.0229 122.338 42.2319Z" fill="black"/>
<path d="M18.3622 12.925V18.6698L20.6192 19.2908C21.5373 19.5625 21.5373 20.0283 21.04 21.5033L16.679 34.8948H16.3729L13.0065 21.5033C12.624 20.106 12.624 19.4849 13.4656 19.2908L15.8374 18.6698V12.925H0V18.6698L2.56305 19.1744C2.79258 19.1744 2.86909 19.3685 2.94559 19.6402L10.5965 44.4823H21.6521L25.4775 31.2849L29.303 44.4823H40.3585L48.0094 19.6402C48.028 19.5297 48.0775 19.427 48.1522 19.3443C48.2268 19.2617 48.3234 19.2027 48.4302 19.1744L50.9168 18.6698V12.925H35.1942V18.6698L37.6042 19.2908C38.4076 19.2908 38.4076 20.106 38.025 21.5033L34.6586 34.8948H34.3526L29.9916 21.5033C29.5325 20.0283 29.4943 19.5625 30.4506 19.2908L32.6694 18.6698V12.925H18.3622Z" fill="black"/>
<path d="M58.2616 30.2378H62.3931V29.0346C62.4185 28.7614 62.3828 28.4859 62.2887 28.2287C62.1947 27.9714 62.0446 27.739 61.8497 27.5488C61.6549 27.3585 61.4202 27.2153 61.1633 27.1298C60.9063 27.0443 60.6337 27.0187 60.3656 27.0549C58.9884 27.0549 58.2616 27.7536 58.2616 29.0346V30.2378ZM49.4248 35.7109V29.578C49.4248 24.0661 53.7093 20.1846 60.1743 20.1846C66.6393 20.1846 70.8856 24.0661 70.8856 29.4615V34.6628H58.2616V35.905C58.2616 37.2247 59.7918 38.1174 61.475 38.1174C63.1582 38.1174 64.7649 37.3799 65.0327 36.2155H70.8856V40.7957C69.6461 42.1159 68.1386 43.1469 66.4674 43.8171C64.7962 44.4874 63.0013 44.7809 61.2072 44.6773C54.0536 44.949 49.4248 41.2615 49.4248 35.7109Z" fill="black"/>
</svg>
