<svg width="43" height="42" viewBox="0 0 43 42" fill="none" xmlns="http://www.w3.org/2000/svg">
<path d="M0.900391 20.7251C0.900391 9.32629 10.2267 0 21.6255 0C33.0243 0 42.3506 9.32629 42.3506 20.7251C42.3506 32.1239 33.0243 41.4502 21.6255 41.4502C10.2267 41.4502 0.900391 32.1239 0.900391 20.7251Z" fill="black"/>
<path d="M21.6245 33.1616C28.4922 33.1616 34.0596 27.5943 34.0596 20.7266C34.0596 13.8589 28.4922 8.2915 21.6245 8.2915C14.7568 8.2915 9.18945 13.8589 9.18945 20.7266C9.18945 27.5943 14.7568 33.1616 21.6245 33.1616Z" stroke="white" stroke-width="2" stroke-miterlimit="10"/>
<path d="M9.89844 16.5815H33.3521" stroke="white" stroke-width="2" stroke-linecap="round" stroke-linejoin="round"/>
<path d="M9.89844 24.8716H33.352" stroke="white" stroke-width="2" stroke-linecap="round" stroke-linejoin="round"/>
<path d="M21.6246 32.8277C24.4862 32.8277 26.8059 27.4098 26.8059 20.7265C26.8059 14.0432 24.4862 8.62524 21.6246 8.62524C18.7631 8.62524 16.4434 14.0432 16.4434 20.7265C16.4434 27.4098 18.7631 32.8277 21.6246 32.8277Z" stroke="white" stroke-width="2" stroke-miterlimit="10"/>
</svg>
