<svg width="147" height="50" viewBox="0 0 147 50" fill="none" xmlns="http://www.w3.org/2000/svg">
<path d="M98.538 31.5084L105.714 23.2428V36.5871L98.538 34.7044V31.5084ZM88.388 5.81162L98.6756 9.5844V22.0746L105.714 15.0948V1.74314L96.782 0L88.388 5.81162ZM80.2202 44.7516C80.2202 44.7516 80.4158 47.8926 85.0952 49.3987C89.7747 50.9049 92.1352 49.1067 92.1352 49.1067V14.2701C83.7375 14.3013 80.2202 10.4973 80.2202 10.4973V44.7516ZM20.0841 13.7851H20.5222V18.1034H12.8124V43.1114H8.08226V18.1034H0.557129V13.7851H20.0841ZM48.2533 38.7968H47.3807V37.8637L47.3354 14.0919V13.7851H42.5129V39.9539C42.5129 41.6971 44.0897 43.1206 46.023 43.1206H46.2384H58.7634V38.8059H48.2641L48.2533 38.7968ZM147 35.8891V43.2363H142.27V35.8891C142.27 33.9605 139.833 32.3992 137.818 32.3992H133.461V43.2363H128.769V16.893C128.769 14.9754 130.206 13.6364 132.265 13.6364H138.658C143.327 13.6364 146.85 16.9426 146.85 21.3068V24.5873C146.85 25.9851 145.964 28.0938 144.266 29.4236L143.26 30.2098L144.294 30.961C146.073 32.2688 146.998 34.4234 146.998 35.8965L147 35.8891ZM142.129 21.3123C142.129 19.4351 140.608 17.9657 138.666 17.9657H133.461V28.0681H137.82C139.772 28.0681 142.13 26.5123 142.13 24.5781L142.129 21.3123Z" fill="#EB8123"/>
</svg>
