<svg width="10" height="10" viewBox="0 0 10 10" fill="none" xmlns="http://www.w3.org/2000/svg">
<mask id="mask0_925_561326" style="mask-type:alpha" maskUnits="userSpaceOnUse" x="0" y="0" width="10" height="10">
<rect width="10" height="10" fill="#C4C4C4"/>
</mask>
<g mask="url(#mask0_925_561326)">
<path d="M9.48953 10.1123L9.00124 6.59441C8.90739 6.13639 8.71418 5.70452 8.43526 5.32929C8.3173 5.1762 8.17019 5.04797 8.00245 4.95199C7.75653 4.82383 7.49563 4.72689 7.22568 4.66344L6.9704 4.60797L6.68185 4.5525C6.55321 4.52805 6.43442 4.46679 6.33987 4.37619C6.24532 4.28558 6.1791 4.16949 6.1492 4.04199L6.02715 4.15297C5.87331 4.28288 5.69072 4.37421 5.49449 4.41933H5.35022H5.15048H4.9951L4.78425 4.35272C4.66852 4.30726 4.56288 4.23939 4.47349 4.15297L4.35143 4.04199C4.31704 4.16913 4.24798 4.28421 4.15196 4.37436C4.05593 4.46451 3.93673 4.5262 3.80767 4.5525L3.53024 4.60797L3.27502 4.66344C3.00126 4.72601 2.7365 4.82296 2.48708 4.95199C2.32281 5.04845 2.17944 5.17672 2.06537 5.32929C1.77857 5.70118 1.58111 6.13405 1.48829 6.59441L1 10.1123H9.48953Z" fill="#CD1B1B"/>
<path d="M6.74847 1.84527V1.61221C6.76685 1.412 6.74381 1.21016 6.6808 1.01924C6.6178 0.828317 6.51616 0.65241 6.38224 0.502467C6.25213 0.334902 6.08294 0.201785 5.88948 0.114729C5.69602 0.0276729 5.48419 -0.0106495 5.2725 0.00310493C5.06069 -0.0116313 4.84853 0.0262439 4.65491 0.113374C4.46128 0.200505 4.2922 0.334165 4.16276 0.502467C4.02651 0.65089 3.9234 0.826618 3.86026 1.01795C3.79712 1.20928 3.77537 1.41184 3.79653 1.61221C3.78533 1.68204 3.78533 1.75322 3.79653 1.82306C3.41922 1.82306 3.3526 2.05611 3.3526 2.27805C3.34339 2.35622 3.35001 2.43544 3.37198 2.51102C3.39394 2.58661 3.43081 2.65703 3.48048 2.71808C3.53016 2.77914 3.5916 2.8296 3.66113 2.86649C3.73066 2.90337 3.80692 2.92591 3.88532 2.9328V2.9328C3.97588 3.26636 4.14308 3.57416 4.37361 3.83168L4.46234 3.92048C4.55484 4.00002 4.65986 4.06374 4.7731 4.10912C4.88869 4.16093 5.01285 4.19105 5.13933 4.19791H5.33908C5.58665 4.17223 5.82161 4.07593 6.016 3.92048L6.09369 3.83168C6.23785 3.68099 6.35766 3.50877 6.44882 3.32121C6.50477 3.196 6.54933 3.066 6.58198 2.9328V2.9328C6.6608 2.92584 6.73745 2.90336 6.80753 2.86662C6.87761 2.82988 6.93972 2.7796 6.99028 2.71873C7.04083 2.65785 7.07885 2.58757 7.1021 2.51194C7.12535 2.4363 7.13337 2.35681 7.12574 2.27805C7.19233 2.0783 7.11468 1.83418 6.74847 1.84527Z" fill="#CD1B1B"/>
</g>
</svg>
