<svg width="35" height="50" viewBox="0 0 35 50" fill="none" xmlns="http://www.w3.org/2000/svg">
<path d="M14.3747 18.7513C12.6612 18.7513 11.2498 20.1628 11.2498 21.8763V34.1813L10.5665 33.4647L10.306 33.2365C9.72665 32.6597 8.94238 32.3359 8.12482 32.3359C7.30727 32.3359 6.523 32.6597 5.94361 33.2365C5.3668 33.8159 5.04297 34.6002 5.04297 35.4178C5.04297 36.2353 5.3668 37.0196 5.94361 37.599V37.6313L14.4726 46.0624L14.5372 46.0947L14.5695 46.1603C16.0685 47.2966 17.8968 47.9135 19.7778 47.9176H21.5694C22.6901 47.9199 23.8001 47.7009 24.8359 47.2731C25.8717 46.8453 26.8128 46.2171 27.6052 45.4246C28.3976 44.6321 29.0256 43.691 29.4533 42.6551C29.881 41.6193 30.0999 40.5092 30.0974 39.3885V31.2512C30.0974 29.5376 28.6849 28.1262 26.9725 28.1262C26.5287 28.1262 26.1183 28.2481 25.735 28.4189C25.3933 27.0648 24.161 26.0429 22.7079 26.0429C21.91 26.0429 21.1777 26.3554 20.6246 26.8564C20.0552 26.3362 19.3127 26.0462 18.5413 26.0429C18.1854 26.0474 17.8329 26.1136 17.4997 26.2387V21.8763C17.4997 20.1628 16.0882 18.7513 14.3747 18.7513ZM14.3747 20.8346C14.9528 20.8346 15.4164 21.2982 15.4164 21.8763V33.3345H17.4997V29.1679C17.4997 28.5897 17.9632 28.1262 18.5413 28.1262C19.1194 28.1262 19.583 28.5897 19.583 29.1679V33.3345H21.6663V29.1679C21.6663 28.5897 22.1298 28.1262 22.7079 28.1262C23.2861 28.1262 23.7496 28.5897 23.7496 29.1679V33.3345H25.9308V31.2512C25.9308 30.673 26.3943 30.2095 26.9725 30.2095C27.5495 30.2095 28.0141 30.673 28.0141 31.2512V39.3896C28.0141 42.9979 25.1777 45.8343 21.5684 45.8343H19.7788C18.2528 45.8343 16.9341 45.2895 15.8393 44.4666L7.40817 36.1334C6.94463 35.6698 6.94463 35.1646 7.40817 34.7011C7.87274 34.2376 8.3769 34.2376 8.84044 34.7011L13.3331 39.1937V21.8763C13.3331 21.2982 13.7966 20.8346 14.3747 20.8346Z" fill="white"/>
<path d="M21.2126 21.2129C25.1177 17.3077 25.1177 10.9761 21.2126 7.07096C17.3074 3.16578 10.9758 3.16578 7.07064 7.07096C3.16546 10.9761 3.16546 17.3077 7.07064 21.2129" stroke="white" stroke-width="2.15"/>
<path d="M17.7718 17.7715C19.7766 15.7666 19.7766 12.5161 17.7718 10.5112C15.7669 8.50632 12.5163 8.50632 10.5114 10.5112C8.50656 12.5161 8.50656 15.7666 10.5114 17.7715" stroke="white" stroke-width="2.15"/>
</svg>
