<svg width="81" height="81" viewBox="0 0 81 81" fill="none" xmlns="http://www.w3.org/2000/svg">
<path d="M17.2318 63.7682C14.3196 60.856 16.2511 54.742 14.7688 51.1594C13.2322 47.4457 7.59375 44.4566 7.59375 40.4999C7.59375 36.5432 13.2323 33.5543 14.7688 29.8405C16.2511 26.258 14.3196 20.144 17.2318 17.2318C20.144 14.3196 26.258 16.2511 29.8406 14.7688C33.5544 13.2322 36.5434 7.59375 40.5001 7.59375C44.4568 7.59375 47.4457 13.2323 51.1595 14.7688C54.742 16.2511 60.856 14.3196 63.7682 17.2318C66.6804 20.144 64.7489 26.258 66.2312 29.8406C67.7678 33.5544 73.4062 36.5434 73.4062 40.5001C73.4062 44.4568 67.7677 47.4457 66.2312 51.1595C64.7489 54.742 66.6804 60.856 63.7682 63.7682C60.856 66.6804 54.742 64.7489 51.1594 66.2312C47.4457 67.7678 44.4566 73.4062 40.4999 73.4062C36.5432 73.4062 33.5543 67.7677 29.8405 66.2312C26.258 64.7489 20.144 66.6804 17.2318 63.7682Z" fill="white" stroke="black" stroke-width="3" stroke-linecap="round" stroke-linejoin="round"/>
<path d="M54.4219 32.9062L35.8593 50.625L26.5781 41.7656" stroke="black" stroke-width="3" stroke-linecap="round" stroke-linejoin="round"/>
</svg>
