<svg width="42" height="42" viewBox="0 0 42 42" fill="none" xmlns="http://www.w3.org/2000/svg">
<path fill-rule="evenodd" clip-rule="evenodd" d="M20.7251 0C9.32629 0 0 9.32629 0 20.7251C0 32.1239 9.32629 41.4502 20.7251 41.4502C32.1239 41.4502 41.4502 32.1239 41.4502 20.7251C41.4502 9.32629 32.1239 0 20.7251 0ZM26.2172 12.6423C25.4919 12.6423 24.8701 12.6423 24.1447 12.6423C23.2121 12.6423 22.694 13.1604 22.5904 13.9894C22.5904 14.7148 22.5904 15.4402 22.5904 16.1656C22.5904 16.4765 22.694 16.3728 22.9012 16.3728C23.9375 16.3728 24.9737 16.3728 26.01 16.3728C26.3209 16.3728 26.4245 16.4765 26.4245 16.7873C26.3209 18.0308 26.2172 19.1707 26.1136 20.4142C26.1136 20.7251 26.01 20.7251 25.6991 20.7251C24.8701 20.7251 24.0411 20.7251 23.2121 20.7251C22.5904 20.7251 22.694 20.6215 22.694 21.2432C22.694 25.0774 22.694 28.8079 22.694 32.642C22.694 33.0565 22.5904 33.1602 22.1759 33.1602C20.7251 33.1602 19.378 33.1602 17.9272 33.1602C17.5127 33.1602 17.5127 33.0565 17.5127 32.642C17.5127 30.7768 17.5127 28.8079 17.5127 26.9426C17.5127 24.9737 17.5127 23.1085 17.5127 21.1396C17.5127 20.8287 17.4091 20.7251 17.0982 20.7251C16.4765 20.7251 15.8547 20.7251 15.2329 20.7251C15.0257 20.7251 14.9221 20.6215 14.9221 20.4142C14.9221 19.1707 14.9221 18.0308 14.9221 16.7873C14.9221 16.5801 15.0257 16.4765 15.2329 16.4765C15.8547 16.4765 16.4765 16.4765 17.0982 16.4765C17.4091 16.4765 17.5127 16.3728 17.5127 16.062C17.5127 15.1293 17.5127 14.1967 17.5127 13.2641C17.5127 12.1242 17.8236 11.0879 18.549 10.1553C19.378 9.01542 20.6215 8.49729 21.9686 8.39367C23.4194 8.29004 24.8701 8.39367 26.2172 8.39367C26.4245 8.39367 26.4245 8.49729 26.4245 8.70454C26.4245 9.94805 26.4245 11.1916 26.4245 12.3314C26.5281 12.5387 26.4245 12.6423 26.2172 12.6423Z" fill="black"/>
</svg>
