<svg width="575" height="49" viewBox="0 0 575 49" fill="none" xmlns="http://www.w3.org/2000/svg">
<path d="M19 42H538.5" stroke="#E8DA04" stroke-width="2" stroke-linejoin="round" stroke-dasharray="4 4"/>
<path d="M6.34342 20.252C9.82942 20.252 11.6984 17.816 11.6984 13.805C11.6984 10.004 9.80842 7.673 6.21742 7.673C3.78142 7.673 1.99642 8.765 1.28242 10.739L4.18042 11.957C4.45342 11.033 5.10442 10.277 6.30142 10.277C7.66642 10.277 8.38042 11.264 8.38042 12.776V15.527C8.38042 16.955 7.64542 17.774 6.34342 17.774C5.04142 17.774 4.30642 17.018 4.30642 15.695V15.359H6.21742V12.944H3.76042C2.16442 12.944 1.26142 13.847 1.26142 15.611V15.758C1.26142 18.572 3.25642 20.252 6.34342 20.252ZM18.4146 20H19.1916V17.27H18.8556C17.2596 17.27 16.7766 16.556 16.7766 14.582V12.755C16.7766 11.201 17.5116 10.403 18.9186 10.403C20.3046 10.403 21.0396 11.201 21.0396 12.755V20H24.1896V12.881C24.1896 9.584 22.4256 7.673 19.0236 7.673C15.2226 7.673 13.5426 10.046 13.5426 14.225C13.5426 18.215 15.0126 20 18.4146 20ZM14.8535 6.455H21.0695C23.0225 6.455 24.0935 5.489 24.0935 3.368V1.772H21.2585V4.145H14.8535V6.455ZM31.1876 20H32.3636V17.396H31.7126C30.1376 17.396 29.6546 16.766 29.6546 14.708V12.818C29.6546 11.327 30.0956 10.466 30.9356 10.466L32.0906 11.894H32.1326L33.3086 10.466C33.9596 10.508 34.2116 10.991 34.2116 12.083V20H37.3616V11.894C37.3616 9.08 35.7026 7.673 33.4556 7.673L32.1326 9.353H32.0906L30.7886 7.673C28.0376 7.673 26.5046 9.5 26.5046 13.805C26.5046 18.362 27.7436 20 31.1876 20Z" fill="#E8DA04"/>
<circle cx="19" cy="42" r="7" fill="#E8DA04"/>
<path d="M253.899 20.252C257.658 20.252 259.044 18.53 259.044 14.666V3.62H255.894V15.275C255.894 16.829 255.327 17.606 253.899 17.606C252.471 17.606 251.904 16.829 251.904 15.275V7.925H248.754V14.666C248.754 18.53 250.14 20.252 253.899 20.252ZM250.727 6.455H254.486V4.145H250.538V2.297H247.703V3.368C247.703 5.489 248.774 6.455 250.727 6.455ZM266.099 7.673C263.831 7.673 262.298 8.534 261.353 9.962L263.348 11.726C263.915 11.012 264.671 10.319 266.099 10.319C267.59 10.319 268.22 11.159 268.22 12.482V14.834C268.22 16.745 267.548 17.522 266.603 17.522H266.498L265.826 14.666C265.49 13.238 265.049 12.818 263.978 12.818H261.794V15.443H263.39L264.398 20H266.12C269.816 20 271.37 18.215 271.37 13.784C271.37 9.647 269.627 7.673 266.099 7.673ZM277.973 7.673C275.705 7.673 274.172 8.534 273.227 9.962L275.222 11.726C275.789 11.012 276.545 10.319 277.973 10.319C279.464 10.319 280.094 11.159 280.094 12.482V14.834C280.094 16.745 279.422 17.522 278.477 17.522H278.372L277.7 14.666C277.364 13.238 276.923 12.818 275.852 12.818H273.668V15.443H275.264L276.272 20H277.994C281.69 20 283.244 18.215 283.244 13.784C283.244 9.647 281.501 7.673 277.973 7.673ZM280.517 26.51H283.037V23.759C283.037 22.079 282.302 21.365 280.58 21.365H278.564V23.78H280.517V26.51ZM290.792 20.252C294.551 20.252 295.937 18.53 295.937 14.666V7.925H292.787V15.275C292.787 16.829 292.22 17.606 290.792 17.606C289.364 17.606 288.797 16.829 288.797 15.275V7.925H285.647V14.666C285.647 18.53 287.033 20.252 290.792 20.252ZM293.837 6.455H297.89V4.145H293.606V2.297H290.813V3.368C290.813 5.489 291.884 6.455 293.837 6.455ZM302.51 20.252C304.4 20.252 305.408 19.223 305.849 17.984H305.975V20H309.125V7.925H305.975V15.716C305.975 16.934 304.82 17.522 303.707 17.522C302.405 17.522 301.943 16.745 301.943 15.17V7.925H298.793V15.59C298.793 18.551 300.095 20.252 302.51 20.252Z" fill="#E8DA04"/>
<circle cx="279" cy="42" r="7" fill="#E8DA04"/>
<path d="M507.361 20.252C510.847 20.252 512.716 17.816 512.716 13.805C512.716 10.004 510.826 7.673 507.235 7.673C504.799 7.673 503.014 8.765 502.3 10.739L505.198 11.957C505.471 11.033 506.122 10.277 507.319 10.277C508.684 10.277 509.398 11.264 509.398 12.776V15.527C509.398 16.955 508.663 17.774 507.361 17.774C506.059 17.774 505.324 17.018 505.324 15.695V15.359H507.235V12.944H504.778C503.182 12.944 502.279 13.847 502.279 15.611V15.758C502.279 18.572 504.274 20.252 507.361 20.252ZM518.823 20.252C520.713 20.252 521.721 19.223 522.162 17.984H522.288V20H525.438V7.925H522.288V15.716C522.288 16.934 521.133 17.522 520.02 17.522C518.718 17.522 518.256 16.745 518.256 15.17V7.925H515.106V15.59C515.106 18.551 516.408 20.252 518.823 20.252ZM533.14 20H536.29V12.167C536.29 9.269 534.631 7.673 531.67 7.673C529.339 7.673 527.932 8.555 526.987 10.004L528.961 11.768C529.465 11.012 530.284 10.319 531.481 10.319C532.615 10.319 533.14 11.075 533.14 12.251V20ZM539.058 20H542.208V17.123C542.208 16.01 542.964 15.443 544.476 15.443H545.337V12.818H544.707C543.384 12.818 542.586 13.49 542.313 14.834H542.208V12.671C542.208 11.117 542.943 10.319 544.371 10.319C545.799 10.319 546.534 11.117 546.534 12.671V20H549.684V12.881C549.684 9.584 547.836 7.673 544.371 7.673C540.906 7.673 539.058 9.584 539.058 12.881V20ZM556.67 20H557.846V17.396H557.195C555.62 17.396 555.137 16.766 555.137 14.708V12.818C555.137 11.327 555.578 10.466 556.418 10.466L557.573 11.894H557.615L558.791 10.466C559.442 10.508 559.694 10.991 559.694 12.083V20H562.844V11.894C562.844 9.08 561.185 7.673 558.938 7.673L557.615 9.353H557.573L556.271 7.673C553.52 7.673 551.987 9.5 551.987 13.805C551.987 18.362 553.226 20 556.67 20ZM567.547 15.107H570.487V13.595C572.461 13.28 574.162 11.768 574.162 9.416C574.162 6.854 572.209 5.09 569.269 5.09C566.413 5.09 565.006 6.77 564.523 8.45L567.085 9.521C567.337 8.492 568.072 7.736 569.164 7.736C570.172 7.736 570.865 8.303 570.865 9.374V9.668C570.865 11.222 569.752 11.81 567.547 11.894V15.107ZM569.059 20.252C570.382 20.252 570.928 19.559 570.928 18.656V18.152C570.928 17.249 570.382 16.556 569.059 16.556C567.736 16.556 567.19 17.249 567.19 18.152V18.656C567.19 19.559 567.736 20.252 569.059 20.252Z" fill="#E8DA04"/>
<circle cx="539" cy="42" r="7" fill="#E8DA04"/>
</svg>
