<svg id="Layer_1" data-name="Layer 1" xmlns="http://www.w3.org/2000/svg" xmlns:xlink="http://www.w3.org/1999/xlink" viewBox="0 0 16 16"><defs><style>.cls-1{fill:none;}.cls-2{opacity:0.3;}.cls-3{clip-path:url(#clip-path);}.cls-4{fill:#4c4cb1;}.cls-5{fill:#db4900;}.cls-6{fill:#b93e00;}.cls-7{fill:#ff777b;}.cls-8{fill:#e65668;}.cls-9{opacity:0.3;}.cls-10{fill:#fff;}.cls-11{fill:#d76468;}.cls-12{fill:#f05101;}.cls-13{opacity:0.5;}</style><clipPath id="clip-path"><rect class="cls-1" x="-5.43" y="-472.3" width="800" height="420" rx="15"/></clipPath></defs><g class="cls-2"><g class="cls-3"><path class="cls-4" d="M56.68-183.47c2.23-3.11,3.34-4.67,4.89-4.67s2.65,1.56,4.88,4.67l8.81,12.33c1.65,2.3,2.47,3.44,3.69,3.65s2.38-.62,4.68-2.26L96-178.55c3.11-2.22,4.67-3.33,6.13-2.83s2,2.34,3.1,6l4.34,14.53c.81,2.71,1.21,4.06,2.3,4.65s2.45.19,5.16-.62l14.53-4.31c3.66-1.09,5.5-1.63,6.72-.69s1.14,2.86,1,6.68L138.61-140c-.11,2.82-.17,4.23.67,5.15s2.25,1,5.08,1.09l15.14.64c3.82.16,5.74.24,6.58,1.53s.15,3.07-1.24,6.64l-5.5,14.12c-1,2.64-1.54,3.95-1,5.09s1.82,1.65,4.45,2.68l14.11,5.52c3.57,1.39,5.35,2.09,5.73,3.58s-.86,3-3.33,5.88l-9.79,11.58c-1.82,2.15-2.73,3.23-2.63,4.47s1.18,2.15,3.33,4l11.56,9.8c2.92,2.48,4.38,3.71,4.25,5.25s-1.77,2.52-5,4.48l-13,7.77c-2.43,1.45-3.64,2.17-3.94,3.37s.41,2.42,1.86,4.85l7.75,13c1.95,3.28,2.93,4.93,2.31,6.34s-2.49,1.81-6.23,2.59L154.82-7.43c-2.76.58-4.14.87-4.82,1.91s-.39,2.42.19,5.18l3.1,14.84c.78,3.75,1.17,5.62.12,6.75s-2.94.9-6.73.43l-15.05-1.86c-2.8-.35-4.2-.52-5.18.24s-1.16,2.17-1.51,5l-1.89,15c-.47,3.79-.71,5.69-2.07,6.43s-3.07-.11-6.51-1.79l-13.62-6.64c-2.54-1.24-3.81-1.86-5-1.46s-1.79,1.67-3,4.21L86.16,54.43c-1.68,3.44-2.52,5.16-4,5.41s-2.87-1.1-5.58-3.8L65.8,45.33c-2-2-3-3-4.23-3s-2.25,1-4.24,3L46.6,56c-2.71,2.7-4.06,4.06-5.58,3.8s-2.37-2-4.05-5.41L30.3,40.82c-1.24-2.54-1.86-3.81-3-4.21s-2.45.22-5,1.46L8.66,44.71C5.22,46.39,3.5,47.23,2.15,46.5S.55,43.86.08,40.07L-1.81,25c-.35-2.8-.53-4.21-1.51-5s-2.38-.59-5.18-.24l-15,1.86c-3.8.47-5.7.71-6.74-.43s-.66-3,.12-6.75l3.1-14.84c.58-2.76.87-4.14.19-5.18s-2.06-1.33-4.82-1.91l-14.84-3.13c-3.74-.78-5.61-1.18-6.23-2.59s.36-3.06,2.31-6.34l7.75-13c1.45-2.43,2.17-3.64,1.86-4.85s-1.51-1.92-3.94-3.37l-13-7.77c-3.28-2-4.92-2.94-5.05-4.48s1.33-2.77,4.25-5.25L-47-68c2.15-1.83,3.23-2.74,3.33-4s-.81-2.32-2.63-4.47l-9.79-11.58c-2.47-2.92-3.71-4.38-3.33-5.88s2.16-2.19,5.73-3.58L-39.62-103c2.63-1,3.95-1.54,4.45-2.68s0-2.45-1-5.09l-5.5-14.12c-1.39-3.57-2.08-5.35-1.24-6.64s2.76-1.37,6.58-1.53l15.14-.64c2.83-.12,4.24-.18,5.08-1.09s.78-2.33.67-5.15l-.62-15.15c-.15-3.82-.23-5.73,1-6.68s3-.4,6.71.69l14.54,4.31c2.7.81,4.06,1.21,5.15.62s1.5-1.94,2.3-4.65l4.34-14.53c1.09-3.66,1.64-5.5,3.1-6s3,.61,6.13,2.83l12.34,8.8c2.3,1.64,3.45,2.46,4.68,2.26s2-1.35,3.69-3.65Z"/></g></g><path class="cls-5" d="M9.59,10.53c4.86-1.3,5.78-4.26,5.63-5.58H9.59Z"/><path class="cls-6" d="M11.14,10c.45-.7.72-1.15,1.14-1.86L12.36,8c.18-.31.35-.62.52-.93s.37-.64.53-1v0l0,0a1.81,1.81,0,0,0-.61-.1A1.74,1.74,0,0,0,12.1,6a5.68,5.68,0,0,0-1,.34A3.05,3.05,0,0,0,9.83,7.47c-.51.78-.66,1.76-1.16,2.55-.12.19-.27.37-.38.56s-.28.39-.17.55a.36.36,0,0,0,.18.1l1.57-.78Z"/><path class="cls-7" d="M1.24,6.48A4.91,4.91,0,0,1,2.82,3.66l11.75.91c-.1.3.23,1-1.42,1.81s-3.56,4.69-4,5.29S6.08,16.31,3,15.18.65,8.7,1.24,6.48Z"/><path class="cls-8" d="M7.72,3.66C5.63,5.82,5.18,9,4.55,11.82,4.84,9,5.36,5.59,7.72,3.66Z"/><g class="cls-9"><ellipse class="cls-10" cx="4.8" cy="5.44" rx="0.83" ry="0.42" transform="translate(-2.35 6.66) rotate(-58.21)"/></g><g class="cls-9"><ellipse class="cls-10" cx="7.53" cy="5.74" rx="0.83" ry="0.42" transform="translate(-1.32 9.11) rotate(-58.21)"/></g><path class="cls-11" d="M5.82,4.87l.11.06a3.3,3.3,0,0,0,2,.12,10.14,10.14,0,0,1,2-.07l2.26,0a8.07,8.07,0,0,1,2.3.23c.16,0,.35.09.47,0a.29.29,0,0,0,0-.35.63.63,0,0,0-.31-.22,4.13,4.13,0,0,0-.93-.26,45.56,45.56,0,0,0-5.95-.57c-1,0-2-.1-3-.2L3.62,3.44a1.33,1.33,0,0,0-.92.08c-.09.06-.19.16-.18.27s.26.25.41.29a11.74,11.74,0,0,1,2.35.52C5.46,4.68,5.64,4.79,5.82,4.87Z"/><path class="cls-12" d="M3.57,1.44A3.17,3.17,0,0,0,2.39,3.36c-.05.23,0,.46.23.52.95.25,2.28-.07,2.88.31s.71.88,3.32.43c1.38-.23,5.59.4,6.15.45a.28.28,0,0,0,.3-.32,5.35,5.35,0,0,0-2.22-3.36,5.76,5.76,0,0,0-3.61-.25c-1.24.3-.54.1-2-.29A4.15,4.15,0,0,0,3.57,1.44Z"/><g class="cls-13"><ellipse class="cls-10" cx="4.61" cy="1.68" rx="0.57" ry="0.28" transform="translate(-0.29 1.81) rotate(-21.55)"/></g><g class="cls-13"><ellipse class="cls-10" cx="9.17" cy="1.96" rx="0.57" ry="0.28" transform="translate(-0.08 3.51) rotate(-21.55)"/></g></svg>