<svg width="10" height="10" viewBox="0 0 10 10" fill="none" xmlns="http://www.w3.org/2000/svg">
<mask id="mask0_682_362919" style="mask-type:alpha" maskUnits="userSpaceOnUse" x="0" y="0" width="10" height="10">
<rect width="10" height="10" fill="#C4C4C4"/>
</mask>
<g mask="url(#mask0_682_362919)">
<path d="M9.48953 10.1126L9.00124 6.59472C8.90739 6.1367 8.71418 5.70483 8.43526 5.3296C8.3173 5.17651 8.17019 5.04828 8.00245 4.95229C7.75653 4.82414 7.49563 4.7272 7.22568 4.66375L6.9704 4.60827L6.68185 4.5528C6.55321 4.52835 6.43442 4.4671 6.33987 4.37649C6.24532 4.28589 6.1791 4.16979 6.1492 4.0423L6.02715 4.15328C5.87331 4.28318 5.69072 4.37451 5.49449 4.41964H5.35022H5.15048H4.9951L4.78425 4.35302C4.66852 4.30757 4.56288 4.23969 4.47349 4.15328L4.35143 4.0423C4.31704 4.16944 4.24798 4.28452 4.15196 4.37466C4.05593 4.46481 3.93673 4.5265 3.80767 4.5528L3.53024 4.60827L3.27502 4.66375C3.00126 4.72631 2.7365 4.82327 2.48708 4.95229C2.32281 5.04875 2.17944 5.17702 2.06537 5.3296C1.77857 5.70148 1.58111 6.13435 1.48829 6.59472L1 10.1126H9.48953Z" fill="#D170FF"/>
<path d="M6.74853 1.84527V1.61221C6.76691 1.412 6.74387 1.21016 6.68086 1.01924C6.61786 0.828317 6.51623 0.65241 6.3823 0.502467C6.25219 0.334902 6.083 0.201785 5.88954 0.114729C5.69608 0.0276729 5.48426 -0.0106495 5.27256 0.00310493C5.06075 -0.0116313 4.84859 0.0262439 4.65497 0.113374C4.46135 0.200505 4.29227 0.334165 4.16282 0.502467C4.02657 0.65089 3.92346 0.826618 3.86032 1.01795C3.79719 1.20928 3.77543 1.41184 3.79659 1.61221C3.78539 1.68204 3.78539 1.75322 3.79659 1.82306C3.41928 1.82306 3.35267 2.05611 3.35267 2.27805C3.34345 2.35622 3.35007 2.43544 3.37204 2.51102C3.394 2.58661 3.43087 2.65703 3.48055 2.71808C3.53022 2.77914 3.59166 2.8296 3.66119 2.86649C3.73072 2.90337 3.80698 2.92591 3.88539 2.9328V2.9328C3.97594 3.26636 4.14314 3.57416 4.37367 3.83168L4.4624 3.92048C4.55491 4.00002 4.65992 4.06374 4.77316 4.10912C4.88875 4.16093 5.01291 4.19105 5.1394 4.19791H5.33914C5.58672 4.17223 5.82167 4.07593 6.01606 3.92048L6.09375 3.83168C6.23791 3.68099 6.35772 3.50877 6.44888 3.32121C6.50483 3.196 6.54939 3.066 6.58204 2.9328V2.9328C6.66086 2.92584 6.73751 2.90336 6.80759 2.86662C6.87767 2.82988 6.93978 2.7796 6.99034 2.71873C7.04089 2.65785 7.07891 2.58757 7.10216 2.51194C7.12541 2.4363 7.13344 2.35681 7.1258 2.27805C7.19239 2.0783 7.11474 1.83418 6.74853 1.84527Z" fill="#D170FF"/>
</g>
</svg>
